<?xml version="1.0" encoding="UTF-8"?><svg id="a" xmlns="http://www.w3.org/2000/svg" viewBox="0 0 478.69 541.99"><path d="M476.45,45.45L433.24,2.24c-1.43-1.43-3.37-2.24-5.4-2.24s-3.97,.8-5.4,2.24l-105.15,105.15-1.8-1.8c-2.98-2.98-7.82-2.98-10.8,0-2.98,2.98-2.98,7.82,0,10.8l1.8,1.8-10.8,10.8-1.8-1.8c-2.98-2.98-7.82-2.98-10.8,0-2.98,2.98-2.98,7.82,0,10.8l1.8,1.8-43.21,43.21-1.8-1.8c-2.98-2.98-7.82-2.98-10.8,0-2.98,2.98-2.98,7.82,0,10.8l1.8,1.8-64.82,64.82-1.8-1.8c-2.98-2.98-7.82-2.98-10.8,0-2.98,2.98-2.98,7.82,0,10.8l1.8,1.8-23.4,23.4L23.85,400.83s-21.61,21.61-21.61,21.61c-2.98,2.98-2.98,7.82,0,10.8l43.21,43.21c1.43,1.43,3.38,2.24,5.4,2.24s3.97-.8,5.4-2.24l81-81,1.8,1.8c1.49,1.49,3.45,2.24,5.4,2.24s3.91-.75,5.4-2.24c2.98-2.98,2.98-7.82,0-10.8l-1.8-1.8,10.8-10.8,1.8,1.8c2.98,2.98,7.82,2.98,10.8,0,2.98-2.98,2.98-7.82,0-10.8l-1.8-1.8,68.42-68.42,1.8,1.8c1.49,1.49,3.45,2.24,5.4,2.24s3.91-.75,5.4-2.24c2.98-2.98,2.98-7.82,0-10.8l-1.8-1.8,10.8-10.8,1.8,1.8c1.49,1.49,3.45,2.24,5.4,2.24s3.91-.75,5.4-2.24c2.98-2.98,2.98-7.82,0-10.8l-1.8-1.8,117.03-117.03s21.61-21.61,21.61-21.61c1.43-1.43,2.24-3.38,2.24-5.4s-.8-3.97-2.24-5.4l-5.4-5.4,1.8-1.8c2.88-2.88,6.71-4.46,10.8-4.46s7.92,1.59,10.8,4.46c5.96,5.96,5.96,15.65,0,21.61l-43.71,43.71c-10.1,10.1-15.66,23.53-15.66,37.81s5.56,27.71,15.66,37.81l43.21,43.21c1.49,1.49,3.45,2.24,5.4,2.24s3.91-.75,5.4-2.24c2.98-2.98,2.98-7.82,0-10.8l-43.21-43.21c-7.21-7.21-11.19-16.81-11.19-27.01s3.97-19.79,11.19-27.01l43.71-43.71c5.76-5.76,8.94-13.44,8.94-21.61,0-8.17-3.17-15.84-8.94-21.61-5.76-5.76-13.44-8.94-21.61-8.94s-15.84,3.17-21.61,8.94l-1.8,1.8-5.4-5.4c-2.98-2.98-7.82-2.98-10.8,0l-21.6,21.6-16.21,16.21-10.8-10.8L427.84,18.44l32.41,32.41-16.92,16.92c-2.98,2.98-2.98,7.82,0,10.8,2.98,2.98,7.82,2.98,10.8,0l22.32-22.32c2.98-2.98,2.98-7.82,0-10.8Zm-180.77,105.15l1.8,1.8c1.49,1.49,3.45,2.24,5.4,2.24s3.91-.75,5.4-2.24c2.98-2.98,2.98-7.82,0-10.8l-1.8-1.8,10.8-10.8,10.8,10.8-64.82,64.82-10.8-10.8,43.21-43.21Zm-54.01,54.01l10.8,10.8-64.82,64.82-10.8-10.8,64.82-64.82ZM50.85,460.25l-32.41-32.41,10.8-10.8,32.41,32.41-10.8,10.8Zm21.61-21.61l-10.8-10.8,53.99-53.99,10.8,10.8-53.99,53.99Zm64.79-64.79l-10.8-10.8,10.8-10.8,10.8,10.8-10.8,10.8Zm21.61-21.6l-16.2-16.21c-1.43-1.43-3.38-2.24-5.4-2.24s-3.97,.8-5.4,2.24l-21.6,21.6-59.39,59.39-10.8-10.8,97.2-97.2,32.41,32.41-10.8,10.8ZM382.11,107.39l10.8,10.8-10.8,10.8-10.8-10.8,10.8-10.8Zm-21.61,21.61l10.8,10.8-190.85,190.85-32.41-32.41,18-18,10.8,10.8-1.8,1.8c-2.98,2.98-2.98,7.82,0,10.8,2.98,2.98,7.82,2.98,10.8,0l174.65-174.64Z"/><g><path d="M129.64,541.99l-48.63-50.24,16.43-15.9c5.45-5.28,10.64-8.12,15.58-8.53s9.53,1.6,13.81,6.02c2.27,2.35,3.61,5.07,4.03,8.17s-.05,6.25-1.39,9.47c3.45-1.87,6.99-2.5,10.63-1.9,3.64,.6,6.88,2.38,9.73,5.32,4.36,4.51,6.33,9.47,5.9,14.87s-3.31,10.69-8.65,15.86l-17.43,16.87Zm-21.26-35.23l10.01-9.69c2.9-2.81,4.51-5.77,4.84-8.91s-.71-5.95-3.12-8.44c-2.68-2.77-5.43-4-8.26-3.7-2.83,.3-5.89,2.04-9.18,5.23l-9.8,9.49,15.5,16.01Zm5.14,5.31l17.5,18.08,10.94-10.59c3.08-2.98,4.74-6.14,4.98-9.46s-1.01-6.39-3.72-9.2c-5.86-6.05-12.07-5.89-18.65,.48l-11.04,10.69Z"/><path d="M195.69,478.06c-1.08-.38-2.65-1.4-4.7-3.07,.02,5.96-2.03,10.93-6.15,14.91-3.68,3.56-7.71,5.44-12.08,5.64-4.37,.2-8.11-1.3-11.2-4.5-3.76-3.89-5.21-8.34-4.33-13.35s3.99-10.11,9.35-15.3l6.21-6.01-2.84-2.93c-2.16-2.23-4.55-3.36-7.16-3.39-2.61-.03-5.22,1.21-7.82,3.73-2.28,2.2-3.63,4.63-4.06,7.27-.43,2.64,.15,4.78,1.73,6.41l-6.42,6.21c-1.8-1.86-2.88-4.3-3.24-7.32-.36-3.02,.11-6.13,1.39-9.33s3.29-6.12,6-8.75c4.3-4.16,8.71-6.35,13.23-6.56s8.65,1.53,12.4,5.21l16.63,17.19c3.32,3.43,6.39,5.73,9.23,6.91l.53,.55-6.69,6.48Zm-15.3,5.39c2-1.94,3.4-4.29,4.19-7.06,.79-2.77,.79-5.38,0-7.81l-7.42-7.66-5,4.84c-7.82,7.57-9.52,13.65-5.09,18.22,1.94,2,4.12,2.92,6.54,2.76s4.68-1.26,6.78-3.29Z"/><path d="M223.23,432.21c-1.67-1.73-3.62-2.44-5.84-2.13s-5.29,1.67-9.19,4.11c-3.9,2.44-7.27,4.09-10.1,4.96s-5.35,1.08-7.55,.62-4.19-1.6-5.97-3.44c-2.96-3.06-4.17-6.9-3.63-11.52s2.82-8.88,6.85-12.78c4.23-4.1,8.72-6.33,13.47-6.69s8.77,1.16,12.07,4.56l-6.42,6.21c-1.69-1.75-3.89-2.54-6.6-2.37s-5.19,1.35-7.44,3.53-3.65,4.51-3.98,6.8,.29,4.24,1.87,5.87c1.49,1.54,3.23,2.11,5.2,1.72s4.9-1.78,8.78-4.15c3.88-2.37,7.28-4.02,10.22-4.94s5.55-1.15,7.86-.69,4.42,1.7,6.36,3.7c3.23,3.34,4.48,7.3,3.76,11.9-.72,4.6-3.21,8.95-7.46,13.07-2.99,2.89-6.15,4.93-9.47,6.09-3.32,1.17-6.56,1.43-9.69,.79s-5.77-2.06-7.91-4.27l6.38-6.18c2.19,2.03,4.69,2.9,7.5,2.6s5.53-1.71,8.15-4.25c2.42-2.34,3.88-4.7,4.4-7.09,.51-2.39-.02-4.4-1.6-6.04Z"/><path d="M259.68,396.94c-1.67-1.73-3.62-2.44-5.84-2.13-2.22,.3-5.29,1.67-9.19,4.11-3.9,2.44-7.27,4.09-10.1,4.96-2.83,.87-5.35,1.08-7.55,.62s-4.19-1.6-5.97-3.44c-2.96-3.06-4.17-6.9-3.63-11.52,.54-4.62,2.82-8.88,6.85-12.78,4.23-4.1,8.72-6.33,13.47-6.69s8.77,1.16,12.07,4.56l-6.42,6.21c-1.69-1.75-3.89-2.54-6.6-2.37-2.71,.17-5.19,1.35-7.44,3.53-2.32,2.25-3.65,4.51-3.98,6.8s.29,4.24,1.87,5.87c1.49,1.54,3.23,2.11,5.2,1.72s4.9-1.78,8.78-4.15c3.88-2.37,7.28-4.02,10.22-4.94,2.94-.93,5.55-1.15,7.86-.69s4.42,1.7,6.36,3.7c3.23,3.34,4.48,7.3,3.76,11.9s-3.21,8.95-7.46,13.07c-2.99,2.89-6.15,4.93-9.47,6.09s-6.56,1.43-9.69,.79c-3.14-.64-5.77-2.06-7.91-4.27l6.38-6.18c2.19,2.03,4.69,2.9,7.5,2.6s5.53-1.71,8.15-4.25c2.42-2.34,3.88-4.7,4.4-7.09s-.02-4.4-1.6-6.04Z"/><path d="M263.87,375.24c-3.54-3.66-6.01-7.64-7.4-11.96-1.39-4.31-1.57-8.51-.54-12.58,1.03-4.07,3.19-7.7,6.48-10.88,5.08-4.92,10.9-7.14,17.45-6.66,6.55,.48,12.65,3.64,18.3,9.49l.43,.45c3.52,3.63,5.98,7.57,7.38,11.8s1.59,8.41,.56,12.52c-1.03,4.12-3.22,7.8-6.58,11.05-5.06,4.9-10.87,7.11-17.41,6.63s-12.63-3.62-18.24-9.42l-.43-.45Zm7.15-5.45c4.01,4.14,8.19,6.54,12.53,7.18s8.13-.59,11.35-3.7,4.59-6.9,4.04-11.3c-.55-4.39-3.04-8.87-7.47-13.45-3.96-4.1-8.15-6.47-12.55-7.13s-8.22,.57-11.44,3.69c-3.15,3.05-4.48,6.76-3.99,11.14,.49,4.38,3,8.9,7.52,13.57Z"/><path d="M304.17,336.23c-3.54-3.66-6.01-7.64-7.4-11.96-1.39-4.31-1.57-8.51-.54-12.58,1.03-4.07,3.19-7.7,6.48-10.88,5.08-4.92,10.9-7.14,17.45-6.66,6.55,.48,12.65,3.64,18.3,9.49l.43,.45c3.52,3.63,5.98,7.57,7.38,11.8,1.4,4.23,1.59,8.41,.56,12.52-1.03,4.12-3.22,7.8-6.58,11.05-5.06,4.9-10.87,7.11-17.41,6.63-6.55-.48-12.63-3.62-18.24-9.42l-.43-.45Zm7.15-5.45c4.01,4.14,8.19,6.54,12.53,7.18s8.13-.59,11.35-3.7,4.59-6.9,4.04-11.3-3.04-8.87-7.47-13.45c-3.96-4.1-8.15-6.47-12.55-7.13-4.4-.66-8.22,.57-11.44,3.69s-4.48,6.76-3.99,11.14c.49,4.38,3,8.9,7.52,13.57Z"/><path d="M334.47,271.41l4.75,4.49c-.62-6.35,1.37-11.75,5.97-16.21,7.89-7.64,16.18-7.04,24.87,1.8l23.88,24.67-6.38,6.18-23.92-24.71c-2.63-2.67-5.17-4.06-7.62-4.18s-4.96,1.06-7.51,3.53c-2.07,2-3.35,4.32-3.85,6.93-.5,2.62-.31,5.25,.55,7.89l25.75,26.61-6.38,6.18-36.14-37.34,6.04-5.85Z"/></g></svg>