<?xml version="1.0" encoding="UTF-8"?><svg id="a" xmlns="http://www.w3.org/2000/svg" viewBox="0 0 366.82 725.87"><g><path d="M204.88,7.45c-1.84-2.23-4.44-3.62-7.32-3.89L161.25,.05c-5.94-.57-11.24,3.8-11.82,9.74l-.68,7.07-.35-.03c-4.73-.46-8.94,3-9.4,7.73-.46,4.73,3,8.94,7.73,9.4l.37,.04-.68,7.08c-.43,4.44,1.91,8.51,5.59,10.54l-1.03,7.92-1.61-.16c-4.73-.46-8.94,3.01-9.39,7.74-.46,4.73,3.01,8.93,7.74,9.39l1.04,.1-21.37,163.56c-18.82,2.46-36.37,9.06-50,18.94-16.62,12.04-26.7,28.46-28.42,46.26-1.39,14.42-.7,26.38,2.18,37.59,.59,3.8,.82,11-3.53,18.75-2.61,4.69-2.12,10.43,1.24,14.61,3.35,4.17,8.8,5.89,13.92,4.4l.49-.13c.33-.06,.66-.14,.99-.24,1.03-.31,1.53-.17,1.69-.12,1.51,.44,3.58,3.59,4.57,9.46,1.28,7.58,.38,17.51-2.46,27.25-2.83,9.72-7.4,18.57-12.55,24.28-3.92,4.35-7.32,5.91-8.87,5.55-.34-.13-2-.82-6.98-3.39-4.4-2.26-9.68-1.69-13.5,1.45-.04,.03-.08,.07-.13,.11-3.82,3.23-5.31,8.4-3.79,13.16,1.23,3.87,1.66,7.83,1.28,11.78-.43,4.43-1.89,8.71-4.24,12.4-10.91,17.1-17.45,34.26-18.94,49.63-2.5,25.86,9.4,50.35,33.49,68.95,19.86,15.34,46.68,25.82,76.23,29.96l-5.36,55.49c-.46,4.73,3.01,8.93,7.74,9.39,2.37,.23,4.6-.52,6.3-1.92,1.7-1.4,2.87-3.45,3.09-5.82l5.36-55.49c29.79,1.6,58.12-3.56,80.55-14.82,7.08-3.55,13.41-7.65,18.97-12.22,15.8-13.02,25.24-29.91,27.09-49.05,1.48-15.35-1.65-33.44-9.07-52.34-3.09-7.83-2.47-16.68,1.69-24.29,.83-1.51,1.33-3.12,1.49-4.77,.39-4.05-1.26-8.04-4.42-10.66-3.14-2.61-7.38-3.49-11.35-2.35-5.44,1.59-7.12,1.92-7.46,1.98-4.24,.23-13.42-12.44-15.34-33.38-.92-10.09,.1-20.01,2.81-27.21,2.1-5.58,4.73-8.27,6.29-8.41,.17-.01,.69-.06,1.65,.44,.3,.16,.61,.3,.92,.42l.42,.21c4.76,2.45,10.45,1.82,14.55-1.65,4.1-3.46,5.67-9,4-14.12-2.79-8.5-1.17-15.48,.14-19.06,4.96-10.48,7.92-22.1,9.31-36.49,1.72-17.79-5.05-35.84-19.05-50.83-11.49-12.3-27.45-22.15-45.45-28.17l9.7-154.68,1.54,.15c2.37,.23,4.6-.52,6.3-1.92s2.87-3.45,3.09-5.82c.46-4.73-3.01-8.93-7.74-9.39l-2.12-.2,1.12-17.92c1.32-.42,2.54-1.09,3.6-1.96,2.14-1.76,3.61-4.34,3.9-7.31l.68-7.07,.37,.04c2.37,.23,4.6-.52,6.3-1.92s2.86-3.45,3.09-5.81c.46-4.73-3.01-8.94-7.74-9.39l-.37-.04,.68-7.08c.28-2.87-.58-5.69-2.42-7.92ZM120.25,614.72c-2.34-.23-4.66-.51-6.96-.82l3.96-41.05,13.92,1.34-3.96,41.05c-2.31-.14-4.63-.3-6.97-.53Zm112.01-291.67c-1.21,12.5-3.71,22.37-7.87,31.07-.1,.21-.19,.43-.28,.65-1.73,4.53-3.96,12.9-2.36,23.22-1.61-.27-3.24-.33-4.89-.18-9.03,.82-16.44,7.75-20.86,19.5-3.64,9.68-5,22.05-3.84,34.83,2.7,29.43,17.36,50.47,34.07,48.95,.32-.03,.68-.07,1.15-.15-2.81,9.67-2.41,19.98,1.3,29.4,6.34,16.14,9.16,31.9,7.96,44.39-2.45,25.33-21.28,39.84-36.64,47.55-15.7,7.88-34.87,12.35-55.51,13.15l4.57-47.29,16.86-55.38c.75-2.47,.36-5.15-1.08-7.29s-3.76-3.53-6.32-3.78l-54.2-5.23c-2.57-.25-5.12,.67-6.93,2.5-1.82,1.83-2.72,4.38-2.45,6.95l5.95,57.58-4.57,47.29c-20.11-4.73-38.07-12.79-51.97-23.53-13.61-10.51-29.32-28.35-26.88-53.68,1.21-12.5,7-27.43,16.32-42.04,3.8-5.96,6.17-12.88,6.86-19.99,.28-2.88,.29-5.76,.03-8.62,.43,.16,.77,.27,1.07,.36,8.71,2.53,18.13-1.21,26.54-10.52,6.93-7.68,12.72-18.69,16.3-30.99,3.59-12.31,4.63-24.71,2.91-34.92-2.09-12.38-8.03-20.59-16.74-23.13-1.58-.46-3.2-.71-4.83-.75,3.52-9.77,2.96-18.41,2.15-23.2-.04-.25-.1-.5-.16-.75-2.44-9.31-3.01-19.48-1.8-31.99,2.31-23.89,26.45-43.51,58.97-49.12l-16.21,124.14c-.3,2.31,.35,4.65,1.8,6.47s3.58,2.98,5.9,3.21l49.97,4.82c2.27,.22,4.54-.47,6.3-1.92,.04-.03,.07-.06,.11-.09,1.78-1.51,2.86-3.68,3.01-6.01l7.83-124.94c30.84,11.75,50.79,35.62,48.49,59.49Zm-114.91,232.51l-4.23-40.97,33.27,3.21-12,39.4-17.04-1.64Zm41.96-177.02l-32.26-3.11L168.92,54.96l10.62,1.03-20.22,322.56ZM187.77,38.65l-23.61-2.28,1.79-18.58,23.61,2.28-1.79,18.58Z"/><path d="M183.39,430.01c-1.24-9.56-10.02-16.34-19.59-15.1-4.71,.61-8.04,4.92-7.43,9.64,.61,4.71,4.92,8.04,9.64,7.43,.15-.02,.29,.09,.31,.24l6.19,47.87c.6,4.63,2.97,8.76,6.67,11.61,3.7,2.85,8.29,4.09,12.92,3.49,1.67-.22,3.16-.89,4.36-1.89,2.21-1.82,3.46-4.7,3.07-7.75-.61-4.71-4.92-8.04-9.64-7.43-.04,0-.12,.02-.21-.06s-.1-.15-.11-.18l-6.19-47.87Z"/><path d="M115.71,410.26c-4.43-1.47-9.17-1.13-13.35,.96-4.18,2.09-7.29,5.69-8.76,10.12l-15.23,45.8s-.04,.11-.14,.16c-.1,.05-.18,.03-.21,.01-4.51-1.5-9.38,.94-10.88,5.45-1.5,4.51,.94,9.38,5.45,10.88,4.43,1.47,9.17,1.13,13.35-.96,1.2-.6,2.31-1.32,3.32-2.16,2.51-2.07,4.39-4.8,5.44-7.96l15.23-45.8s.04-.11,.14-.16c.1-.05,.17-.03,.21-.01,4.51,1.5,9.38-.94,10.88-5.45,1.5-4.51-.94-9.38-5.45-10.88Z"/></g><g><path d="M210.43,688.29c2.45,7.72,2.29,14.59-.46,20.63-2.76,6.04-7.91,10.76-15.47,14.16-8.19,3.69-16.07,3.71-23.65,.07-7.58-3.65-13.59-10.39-18.03-20.22l-3-6.66c-2.9-6.44-4.31-12.62-4.21-18.55s1.67-11.15,4.71-15.67,7.34-8.03,12.89-10.54c7.36-3.32,14.19-3.93,20.49-1.82,6.3,2.11,11.45,6.63,15.45,13.57l-9.19,4.14c-3.29-5.18-6.82-8.41-10.59-9.7s-8.03-.86-12.79,1.29c-5.84,2.63-9.44,6.86-10.81,12.67-1.37,5.81-.26,12.71,3.34,20.68l3.03,6.72c3.39,7.53,7.66,12.81,12.81,15.84s10.54,3.27,16.19,.72c5.08-2.29,8.45-5.2,10.13-8.72,1.68-3.52,1.67-8.34-.02-14.45l9.19-4.14Z"/><path d="M253.24,696.6c-6.98,3.15-13.7,3.42-20.14,.81s-11.4-7.76-14.86-15.44l-.73-1.62c-2.3-5.11-3.38-10.11-3.24-15s1.45-9.27,3.94-13.12c2.48-3.85,5.77-6.7,9.87-8.54,6.7-3.02,12.89-3.16,18.6-.42s10.41,8.21,14.11,16.43l1.65,3.67-34.89,15.73c2.42,5.02,5.75,8.45,10,10.3s8.56,1.78,12.94-.19c3.11-1.4,5.46-3.22,7.04-5.47,1.59-2.24,2.72-4.78,3.39-7.6l7.27,1.76c-1.33,8.58-6.3,14.81-14.94,18.7Zm-21.91-45.68c-3.55,1.6-5.95,4.24-7.2,7.91-1.25,3.67-1.1,7.97,.43,12.89l25.8-11.63-.3-.67c-2.27-4.36-5.04-7.28-8.31-8.77s-6.74-1.4-10.42,.26Z"/><path d="M292.65,677.68l-8.81,3.97-32.97-73.11,8.81-3.97,32.97,73.11Z"/><path d="M316.31,667.02l-8.81,3.97-32.97-73.11,8.81-3.97,32.97,73.11Z"/><path d="M316.24,635.49c-2.27-5.05-3.33-10.03-3.16-14.95,.17-4.92,1.52-9.28,4.08-13.06s6.1-6.7,10.63-8.75c7.01-3.16,13.78-3.29,20.3-.39,6.52,2.9,11.6,8.38,15.23,16.44l.28,.62c2.26,5.01,3.33,9.94,3.2,14.79-.12,4.85-1.47,9.19-4.04,13.02-2.57,3.83-6.17,6.79-10.8,8.88-6.98,3.15-13.73,3.27-20.25,.37-6.52-2.9-11.58-8.35-15.19-16.35l-.28-.62Zm9.33-2.94c2.58,5.71,5.97,9.7,10.18,11.96s8.54,2.39,12.98,.39c4.47-2.02,7.24-5.37,8.29-10.07,1.05-4.69,.16-10.2-2.69-16.51-2.55-5.65-5.95-9.62-10.21-11.92-4.26-2.3-8.62-2.44-13.06-.44s-7.07,5.27-8.18,9.93c-1.11,4.66-.21,10.21,2.7,16.65Z"/></g></svg>