<?xml version="1.0" encoding="UTF-8"?><svg id="a" xmlns="http://www.w3.org/2000/svg" viewBox="0 0 512.05 563.86"><g><path d="M512.04,49.88c-.1-3.9-1.1-7.8-2.9-11.3-4.4-8.6-12.3-14.2-21.5-15.5L324.74,.28c-15.5-2.2-29.9,8.7-32.1,24.2-1.1,7.5,.9,15,5.4,21,3.7,4.9,8.8,8.4,14.6,10.1,5.8,6.7,26.2,32.3,31,65.3-67.2-34.9-152.1-24.2-208.5,32.1-37.6,37.7-54.9,88.2-51.7,137.6l-45.5-31.4,.5-.5c3.3-3.3,3.6-8.7,.4-12-3.3-3.5-8.8-3.5-12.1-.2l-7.9,7.9h0l-11.2,11.3-5,5c-3.4,3.4-3.6,9.1-.1,12.4,1.6,1.6,3.7,2.3,5.8,2.3,1.8,0,3.7-.6,5.2-1.8l121.7,121.7c34.8,34.8,80.5,52.2,126.1,52.2s91.4-17.4,126.1-52.2c46.8-46.8,62.1-113.3,45.9-173-6.3-23.2-8.2-47.3-4.8-71l.3-2.1c6.3-45,45.8-73.4,55.1-79.5,6-.1,11.9-2,16.8-5.7,7.4-5.7,11.6-14.4,11.3-24.1ZM25.54,271.68l.2-.2,60.5,41.7c1.7,9,4.2,17.9,7.3,26.6L25.54,271.68Zm350,121.6c-62.9,63-165.4,63-228.3,0s-63-165.4,0-228.3c31.5-31.5,72.8-47.2,114.2-47.2s82.7,15.7,114.2,47.2c62.8,62.9,62.8,165.3-.1,228.3Zm36.6-236.6l-3.1,22.3c-6.2-9.2-13.4-17.9-21.5-26s-16.8-15.2-25.9-21.4c-.8-30.6-14.2-56.4-24.8-72.3l123.1,17.3c-17.6,14.7-42.5,41.8-47.8,80.1Zm82.9-103.9c-.4,3-2,5.7-4.5,7.6s-5.5,2.6-8.5,2.2l-162.8-22.9c-3-.4-5.7-2-7.6-4.5-1.8-2.4-2.6-5.5-2.2-8.5,.8-5.7,5.7-9.9,11.4-9.9,.5,0,1.1,0,1.6,.1l162.8,22.8c3,.4,5.7,2,7.6,4.5,1.8,2.5,2.6,5.6,2.2,8.6Z"/><path d="M372.64,195.18c-46.3-61.4-133.8-73.6-195.2-27.4-61.3,46.3-73.6,133.9-27.4,195.2,27.4,36.3,69.2,55.4,111.4,55.4,29.2,0,58.7-9.1,83.7-28,61.5-46.3,73.7-133.8,27.5-195.2Zm-155.2,198.2c-20.7-7.9-39.5-21.6-53.8-40.5-6.9-9.2-12.3-19-16.3-29.2h20.1v1.7c0,25.2,20.5,45.7,45.7,45.7h4.5l-.2,22.3h0Zm0-69.8v30.4h-4.5c-15.9,0-28.8-12.9-28.8-28.8,0-.6,0-1.1,.1-1.7l33.2,.1h0Zm0-16.9h-26.4c5.3-6.2,13.1-10.1,21.9-10.1h4.5v10.1h0Zm0-27h-4.5c-18.6,0-34.6,11.1-41.7,27.1h-29.2c-4.4-19-4.1-38.8,.6-57.5h74.7l.1,30.4h0Zm70.9,118.9c-17.9,4-36.3,3.9-54-.1v-27.5h54v27.6Zm0-44.5h-54v-30.4h54v30.4Zm0-47.4h-54v-10.1h54v10.1Zm0-57.5v30.5h-54v-30.4h54v-.1Zm-53.7-16.9c1.8-13.1,13.1-23.3,26.7-23.3s24.9,10.1,26.7,23.3h-53.4Zm100.4,144.6c-9.3,7-19.4,12.5-29.8,16.5v-22.4h10.1c17.7,0,32.1-14.4,32.1-32.1s-14.4-32.2-32.1-32.2h-10.1v-10.1h10.1c17.7,0,32.1-14.4,32.1-32.1s-14.4-32.1-32.1-32.1h-10.2c-1.9-22.5-20.8-40.2-43.7-40.2s-41.8,17.7-43.7,40.2h-69.3c8.1-19.6,21.3-37.3,39.4-50.9,22-16.6,47.9-24.6,73.6-24.6,37.1,0,73.9,16.8,97.9,48.7,40.4,53.7,29.6,130.7-24.3,171.3Zm-29.8-22.8v-30.4h10.1c8.4,0,15.2,6.8,15.2,15.2s-6.8,15.2-15.2,15.2h-10.1Zm25.3-89.7c0,8.4-6.8,15.2-15.2,15.2h-10.1v-30.4h10.1c8.4,0,15.2,6.9,15.2,15.2Z"/></g><g><path d="M190.9,562.41h-13.92v-48.55h-52.95v48.55h-13.85v-105.03h13.85v45.16h52.95v-45.16h13.92v105.03Z"/><path d="M209.87,522.67c0-7.65,1.5-14.52,4.51-20.63s7.19-10.82,12.55-14.14c5.36-3.32,11.48-4.98,18.36-4.98,10.63,0,19.22,3.68,25.79,11.04,6.56,7.36,9.85,17.14,9.85,29.36v.94c0,7.6-1.45,14.42-4.36,20.45s-7.07,10.74-12.48,14.1-11.63,5.05-18.65,5.05c-10.58,0-19.15-3.68-25.72-11.04s-9.85-17.1-9.85-29.22v-.94Zm13.42,1.59c0,8.66,2.01,15.61,6.02,20.85s9.39,7.86,16.12,7.86,12.17-2.66,16.16-7.97c3.99-5.31,5.99-12.76,5.99-22.33,0-8.56-2.03-15.5-6.1-20.81s-9.46-7.97-16.19-7.97-11.9,2.62-15.94,7.86-6.06,12.74-6.06,22.51Z"/><path d="M335.39,496.34c-2.02-.34-4.21-.5-6.56-.5-8.75,0-14.69,3.73-17.82,11.18v55.4h-13.35v-78.05h12.98l.22,9.02c4.38-6.97,10.58-10.46,18.61-10.46,2.6,0,4.57,.34,5.92,1.01v12.41Z"/><path d="M360.27,484.36l.43,9.81c5.96-7.5,13.75-11.25,23.37-11.25,16.5,0,24.82,9.31,24.96,27.92v51.58h-13.35v-51.65c-.05-5.63-1.33-9.79-3.86-12.48s-6.46-4.04-11.79-4.04c-4.33,0-8.13,1.15-11.4,3.46s-5.82,5.34-7.65,9.09v55.62h-13.35v-78.05h12.62Z"/></g></svg>