<?xml version="1.0" encoding="UTF-8"?><svg id="a" xmlns="http://www.w3.org/2000/svg" viewBox="0 0 470.09 397.66"><path d="M81.49,3.87l-9.49,19.55c-.44,.48-.82,1.03-1.11,1.63L10.25,149.94c-.29,.6-.49,1.24-.59,1.88L.69,170.27c-1.66,3.42-.24,7.54,3.19,9.2,3.42,1.66,7.54,.24,9.2-3.19l8.38-17.25c2.98-.53,7.55-1.3,13.18-2.15,37.12-5.61,69.73-.79,102.62,15.18l36.2,17.57-6.77,13.94c-1.66,3.42-.24,7.54,3.19,9.2l128.21,62.25c3.42,1.66,7.54,.24,9.2-3.19l6.77-13.93,40.42,19.62-1.96,4.04c-1.66,3.42-.24,7.54,3.19,9.2s7.54,.24,9.2-3.19l2.38-4.9,62.39,25.23c.05,.02,.09,.06,.14,.08l9.8,3.97,.5,.18c5.81,1.85,12.21-.89,14.87-6.37l13.9-28.63c1.44-2.97,1.58-6.29,.54-9.3-.89-2.57-2.64-4.91-5.17-6.6l-9.18-5.24h0l-58.57-33.49,2.41-4.97c.83-1.71,.89-3.59,.31-5.26s-1.79-3.11-3.5-3.94c-3.42-1.66-7.54-.24-9.2,3.19l-1.99,4.09-.81-.39c.67-1.57,.8-3.32,.23-4.95l-4.51-13.01c-.6-1.73-1.85-3.15-3.5-3.94l-8.76-4.25c-1.65-.8-3.53-.91-5.26-.31l-13.01,4.51c-1.63,.56-2.92,1.74-3.74,3.24l-5.25-2.55c.67-1.57,.8-3.32,.23-4.95l-4.51-13.01c-.6-1.73-1.85-3.15-3.5-3.94l-8.76-4.25c-1.65-.8-3.53-.91-5.26-.31l-13.01,4.51c-1.63,.56-2.92,1.74-3.74,3.24l-5.25-2.55c.67-1.57,.8-3.32,.23-4.95l-4.51-13.01c-.6-1.73-1.85-3.15-3.5-3.94l-8.76-4.25c-1.65-.8-3.53-.91-5.26-.31l-13.01,4.51c-1.63,.56-2.92,1.74-3.74,3.24l-5.25-2.55c.67-1.57,.8-3.32,.23-4.95l-4.51-13.01c-.6-1.73-1.85-3.15-3.5-3.94l-8.76-4.25c-1.65-.8-3.53-.91-5.26-.31l-13.01,4.51c-1.63,.56-2.92,1.74-3.74,3.24l-5.25-2.55c.67-1.57,.8-3.32,.23-4.95l-4.51-13.01c-.6-1.73-1.85-3.15-3.5-3.94l-8.76-4.25c-1.65-.8-3.53-.91-5.26-.31l-13.01,4.51c-1.63,.56-2.92,1.74-3.74,3.24l-2.71-1.31c-33.92-16.47-58.04-38.78-75.9-70.21-2.81-4.94-5.03-9.01-6.46-11.68l8.91-18.35c.83-1.71,.89-3.59,.31-5.26s-1.79-3.11-3.5-3.94c-3.43-1.67-7.54-.24-9.21,3.17Zm100.58,199.51l3.76-7.75,32.96,16.01-3.76,7.75-32.96-16.01Zm45.35,22.02l3.76-7.75,27.03,13.12-3.76,7.75-27.03-13.12Zm70.48,34.22l-31.07-15.09,3.76-7.74,31.07,15.09-3.76,7.74Zm22.16-14.12l5.26-10.83c.83-1.71,.89-3.59,.31-5.26s-1.79-3.11-3.5-3.94c-3.42-1.66-7.54-.24-9.2,3.19l-5.26,10.83-31.07-15.09,9-18.53c.83-1.71,.89-3.59,.31-5.26s-1.79-3.11-3.5-3.94c-3.42-1.66-7.54-.24-9.2,3.19l-8.99,18.52-27.03-13.12,8.99-18.52c.83-1.71,.89-3.59,.31-5.26s-1.79-3.11-3.5-3.94c-3.42-1.66-7.54-.24-9.2,3.19l-8.99,18.52-32.96-16.01,5.26-10.82c1.66-3.42,.24-7.54-3.19-9.2s-7.54-.24-9.2,3.19l-5.26,10.82-30-14.57,6.82-14.05,9.87-20.34,3.61,10.43c.6,1.73,1.85,3.15,3.5,3.94l8.76,4.25c1.65,.8,3.53,.91,5.26,.31l13.01-4.51c.47-.16,.93-.38,1.34-.63l7.09,3.44c.05,.48,.17,.98,.33,1.44l4.51,13.01c.6,1.73,1.85,3.15,3.5,3.94l8.76,4.25c1.65,.8,3.53,.91,5.26,.31l13.01-4.51c.47-.16,.93-.38,1.34-.63l7.09,3.44c.05,.48,.17,.98,.33,1.44l4.51,13.01c.6,1.73,1.85,3.15,3.5,3.94l8.76,4.25c1.65,.8,3.53,.91,5.26,.31l13.01-4.51c.47-.16,.93-.38,1.34-.63l7.09,3.44c.05,.48,.17,.98,.33,1.44l4.51,13.01c.6,1.73,1.85,3.15,3.5,3.94l8.76,4.25c1.65,.8,3.53,.91,5.26,.31l13.01-4.51c.47-.16,.93-.38,1.34-.63l7.09,3.44c.05,.48,.17,.98,.33,1.44l4.51,13.01c.6,1.73,1.85,3.15,3.5,3.94l8.76,4.25c1.65,.8,3.53,.91,5.26,.31l13.01-4.51c.47-.16,.93-.38,1.34-.63l1.27,.62-18.04,37.16-39.99-19.41Zm123.11,53.02l-8.23-3.33c-3.92-1.61-6.93-4.67-8.45-8.62-1.5-4.03-1.35-8.27,.51-12.11s5.13-6.63,9.19-7.89c4.07-1.26,8.35-.79,12.05,1.34l7.69,4.38-12.75,26.23Zm-16.33-42.85c-5.26,2.87-9.59,7.32-12.24,12.78-2.64,5.44-3.51,11.63-2.52,17.5l-38.81-15.69,17.19-35.4,36.37,20.81Zm-63.1-52.99l3.63,1.76,2.64,7.62-1.62,3.34-7.76,2.93-3.63-1.76-2.64-7.62,.14-.28s0-.02,0-.02l1.62-3.33,7.62-2.64Zm-43.79-21.26l3.63,1.76,2.64,7.62-1.62,3.34-7.76,2.93-3.63-1.76-2.64-7.62,.14-.28s0-.02,0-.02l1.62-3.33,7.62-2.64Zm-43.79-21.26l3.63,1.76,2.64,7.62-1.62,3.34-7.76,2.93-3.63-1.76-2.64-7.62,.14-.28s0-.02,0-.02l1.62-3.33,7.62-2.64Zm-43.79-21.26l3.63,1.76,2.64,7.62-1.62,3.34-7.76,2.93-3.63-1.76-2.64-7.62,.14-.28s0-.02,0-.02l1.62-3.33,7.62-2.64Zm-43.79-21.26l3.63,1.76,2.64,7.62-1.62,3.34-7.76,2.93-3.63-1.76-2.64-7.62,.14-.28s0-.02,0-.02l1.62-3.33,7.62-2.64ZM79.45,46.72c18.2,32.03,42.36,55.27,75.71,72.7l-18.13,37.35c-33.09-14.7-67.33-19.11-104.45-13.51-1.3,.2-2.54,.39-3.74,.58L77.59,43.42c.58,1.06,1.2,2.15,1.86,3.3Z"/><g><path d="M88.8,248.66c-4.29,7.04-9.67,11.52-16.15,13.43-6.48,1.92-13.55,1.11-21.21-2.41-8.31-3.82-13.6-9.86-15.86-18.11-2.27-8.26-1.11-17.38,3.48-27.36l3.11-6.76c3-6.54,6.81-11.75,11.43-15.63,4.61-3.89,9.67-6.17,15.17-6.86,5.5-.69,11.07,.26,16.71,2.85,7.47,3.43,12.5,8.27,15.09,14.51,2.59,6.24,2.56,13.22-.09,20.93l-9.32-4.28c1.78-5.99,1.9-10.86,.37-14.62-1.53-3.76-4.71-6.74-9.54-8.96-5.92-2.72-11.58-2.67-16.96,.17-5.38,2.84-9.93,8.3-13.64,16.39l-3.13,6.82c-3.51,7.64-4.71,14.45-3.59,20.42s4.54,10.28,10.27,12.92c5.15,2.37,9.64,3.02,13.47,1.95s7.52-4.29,11.09-9.68l9.32,4.28Z"/><path d="M99.5,280.6l-8.93-4.11,34.1-74.18,8.93,4.11-34.1,74.18Z"/><path d="M146.06,302c-.04-1.27,.38-3.3,1.27-6.08-6.14,2.41-12.09,2.28-17.85-.37-5.15-2.37-8.71-5.77-10.67-10.2-1.96-4.43-1.91-8.88,.14-13.36,2.5-5.44,6.51-8.72,12.03-9.83,5.52-1.11,12.03,.06,19.53,3.51l8.69,4,1.89-4.11c1.44-3.12,1.64-6.04,.63-8.75-1.02-2.71-3.34-4.9-6.98-6.57-3.19-1.47-6.23-1.89-9.13-1.27-2.9,.62-4.87,2.07-5.92,4.36l-8.98-4.13c1.2-2.61,3.28-4.7,6.25-6.28,2.97-1.58,6.36-2.35,10.19-2.31,3.82,.04,7.63,.93,11.43,2.68,6.02,2.77,10.05,6.44,12.08,11.02,2.03,4.58,1.89,9.54-.4,14.88l-11.05,24.05c-2.21,4.8-3.35,8.89-3.43,12.29l-.36,.77-9.37-4.31Zm-11.7-13.62c2.8,1.29,5.79,1.78,8.97,1.49s5.86-1.34,8.05-3.14l4.93-10.72-7-3.22c-10.95-5.03-17.89-4.34-20.84,2.06-1.29,2.8-1.36,5.42-.22,7.86,1.14,2.44,3.18,4.33,6.11,5.67Z"/><path d="M213.19,279.27c-1.25-.85-2.66-1.63-4.24-2.36-5.86-2.69-10.98-2.03-15.37,2l-17.05,37.09-8.93-4.11,24.02-52.26,8.69,4-2.63,6.1c5.08-3.32,10.3-3.75,15.68-1.28,1.74,.8,2.96,1.63,3.65,2.5l-3.82,8.31Z"/><path d="M231.51,261.19c.67-1.45,1.67-2.47,3.02-3.06,1.34-.59,2.89-.49,4.62,.31,1.74,.8,2.83,1.9,3.27,3.32,.44,1.41,.33,2.84-.33,4.29s-1.67,2.45-3.02,3c-1.35,.55-2.89,.43-4.63-.37s-2.83-1.89-3.27-3.26c-.44-1.37-.33-2.78,.34-4.23Zm-20.73,70.56l-8.93-4.11,24.02-52.26,8.93,4.11-24.02,52.26Z"/><path d="M257.54,289.95l-2.73,6.7c6.3-3.19,12.67-3.3,19.11-.34,11.04,5.08,13.75,13.87,8.12,26.37l-15.87,34.53-8.93-4.11,15.89-34.58c1.7-3.78,2.12-6.96,1.26-9.54-.86-2.58-3.08-4.69-6.65-6.33-2.9-1.33-5.8-1.73-8.7-1.19-2.9,.54-5.54,1.78-7.92,3.73l-17.11,37.24-8.93-4.11,24.02-52.26,8.45,3.88Z"/><path d="M300.89,374.34c-7.08-3.26-11.78-8.23-14.08-14.93-2.3-6.69-1.67-13.94,1.91-21.73l.75-1.64c2.38-5.18,5.5-9.36,9.35-12.52s8.09-5.08,12.7-5.74c4.62-.67,9-.05,13.15,1.86,6.79,3.12,11.05,7.79,12.76,13.99,1.71,6.21,.65,13.48-3.18,21.82l-1.71,3.72-35.4-16.27c-2.24,5.21-2.65,10.06-1.22,14.56,1.42,4.5,4.36,7.77,8.8,9.81,3.16,1.45,6.12,2.03,8.91,1.75,2.78-.28,5.48-1.11,8.1-2.48l3.5,6.76c-7.47,4.72-15.59,5.06-24.34,1.04Zm20.42-47.36c-3.61-1.66-7.24-1.74-10.89-.24-3.65,1.5-6.86,4.48-9.61,8.95l26.18,12.03,.31-.68c1.83-4.66,2.22-8.74,1.18-12.24-1.04-3.5-3.43-6.11-7.17-7.83Z"/><path d="M374.01,328.15l-5.82,12.65,9.76,4.48-3.17,6.91-9.76-4.48-14.91,32.45c-.96,2.1-1.25,3.87-.86,5.31s1.63,2.65,3.72,3.61c1.03,.47,2.54,.93,4.52,1.37l-3.31,7.2c-2.64-.44-5.08-1.17-7.3-2.19-3.99-1.84-6.45-4.43-7.37-7.77-.92-3.35-.36-7.24,1.69-11.69l14.89-32.41-9.51-4.37,3.17-6.91,9.51,4.37,5.82-12.65,8.93,4.11Z"/></g></svg>