<?xml version="1.0" encoding="UTF-8"?><svg id="a" xmlns="http://www.w3.org/2000/svg" viewBox="0 0 462.44 257.68"><g><path d="M462.16,48.96l-14.35-44.87c-.48-1.49-1.52-2.72-2.91-3.44s-3-.85-4.49-.37l-40.96,13.1c-8.32-2.11-17.51-1.82-26.3,.99-22.5,7.2-35.82,28.65-29.69,47.82,1.9,5.93,5.52,11.14,10.47,15.2l-31.34,10.02-10.76-33.65,15.14-4.84c3.1-.99,4.81-4.3,3.82-7.4-.99-3.1-4.31-4.8-7.4-3.81l-93.65,29.96-.6-1.87c-.99-3.1-4.3-4.8-7.4-3.81-3.1,.99-4.81,4.3-3.81,7.4l.6,1.87-33.65,10.76-.6-1.87c-.99-3.1-4.3-4.8-7.4-3.81-3.1,.99-4.81,4.3-3.82,7.4l.6,1.87-33.65,10.76-.6-1.87c-.99-3.1-4.31-4.8-7.4-3.81-3.1,.99-4.81,4.3-3.82,7.4l.6,1.87-17.2,5.5c-1.57-1.58-3.4-2.93-5.44-3.98-5.13-2.64-10.97-3.13-16.47-1.37-5.49,1.76-9.97,5.55-12.62,10.67-1.05,2.04-1.76,4.2-2.12,6.4l-15.7,5.02c-1.57-1.58-3.4-2.93-5.44-3.98-5.13-2.64-10.98-3.13-16.47-1.37-7.97,2.55-13.44,9.33-14.72,17.07l-18.5,5.92c-3.1,.99-4.81,4.3-3.82,7.4l14.35,44.87c.48,1.49,1.52,2.72,2.91,3.44s3,.85,4.49,.37L369.09,84.91c8.32,2.11,17.51,1.82,26.3-.99,8.8-2.82,16.44-7.87,22.01-14.46l40.95-13.1c3.1-.99,4.81-4.3,3.81-7.4ZM93.25,111.31c2.5-.8,5.16-.58,7.49,.62,2.33,1.2,4.05,3.24,4.85,5.73,1.65,5.15-1.2,10.69-6.36,12.34-2.5,.8-5.15,.58-7.48-.62s-4.05-3.24-4.85-5.73c-1.65-5.15,1.2-10.69,6.36-12.34Zm-52.34,16.74c2.5-.8,5.16-.58,7.49,.62,2.33,1.2,4.05,3.24,4.85,5.73,1.65,5.15-1.2,10.69-6.36,12.34-2.5,.8-5.16,.58-7.49-.62-2.33-1.2-4.05-3.24-4.85-5.73-1.65-5.15,1.2-10.69,6.36-12.34Zm-16.85,54.85l-10.76-33.65,10.73-3.43c1.96,4.65,5.45,8.43,9.99,10.77,5.13,2.64,10.97,3.13,16.47,1.37,5.49-1.76,9.97-5.55,12.62-10.67,2.34-4.54,2.99-9.65,1.88-14.57l11.39-3.64c1.96,4.65,5.45,8.43,9.99,10.77,5.13,2.64,10.98,3.13,16.47,1.37,5.49-1.76,9.97-5.55,12.62-10.67,2.34-4.54,2.99-9.65,1.88-14.57l15.04-4.81,3.9,12.19c-2.07,1.57-3.8,3.58-5.02,5.96-2.16,4.19-2.56,8.98-1.12,13.47,.62,1.94,1.57,3.72,2.77,5.3L24.05,182.9Zm124.68-39.88c-1.5,.48-3.09,.35-4.49-.37s-2.43-1.94-2.91-3.44c-.48-1.5-.35-3.09,.37-4.49s1.94-2.43,3.44-2.91c1.5-.48,3.09-.35,4.49,.37s2.43,1.94,2.91,3.44c.48,1.5,.35,3.09-.37,4.49-.72,1.4-1.94,2.43-3.44,2.91Zm15.85-5.07c.06-1.98-.2-3.98-.82-5.92-1.44-4.49-4.54-8.16-8.73-10.32-2.38-1.23-4.95-1.86-7.55-1.94l-3.9-12.19,33.65-10.76,3.9,12.18c-5.79,4.4-8.48,12.14-6.14,19.45,.62,1.94,1.57,3.72,2.77,5.3l-13.17,4.21Zm29.02-9.28c-1.5,.48-3.09,.35-4.49-.37s-2.43-1.94-2.91-3.44c-.99-3.09,.72-6.41,3.81-7.4,1.5-.48,3.09-.35,4.49,.37s2.43,1.94,2.91,3.44c.99,3.09-.72,6.41-3.82,7.4Zm15.86-5.07c.06-1.95-.2-3.95-.83-5.92-1.44-4.49-4.54-8.16-8.73-10.32-2.38-1.23-4.95-1.87-7.55-1.94l-3.9-12.19,33.65-10.76,3.9,12.18c-5.79,4.4-8.48,12.14-6.14,19.45,.62,1.94,1.57,3.72,2.77,5.3l-13.15,4.21Zm29.01-9.28c-1.5,.48-3.09,.35-4.49-.37s-2.43-1.94-2.91-3.44c-.99-3.09,.72-6.41,3.82-7.4,1.5-.48,3.09-.35,4.49,.37s2.43,1.94,2.91,3.44c.99,3.09-.72,6.41-3.82,7.4Zm15.86-5.07c.06-1.95-.2-3.95-.83-5.92-1.44-4.49-4.54-8.16-8.73-10.32-2.38-1.23-4.95-1.87-7.55-1.94l-3.9-12.19,67.3-21.52,10.76,33.65-57.05,18.25Zm156.47-50.62c-4.15,6.48-10.89,11.48-18.99,14.07-9.04,2.89-18.52,2.34-26.01-1.52-5.56-2.87-9.4-7.21-11.12-12.57-4.15-12.99,5.74-27.8,22.06-33.02,9.04-2.89,18.52-2.34,26,1.52,5.56,2.87,9.4,7.21,11.12,12.57,1.95,6.09,.86,12.82-3.06,18.95Zm14.61-4.1c1.67-6.14,1.59-12.44-.33-18.44-1.9-5.93-5.53-11.14-10.47-15.2l23.78-7.61,10.76,33.65-23.75,7.6Z"/><circle cx="384.27" cy="49.15" r="7.85"/></g><g><path d="M221.76,206.28l-36.01,10.27,10.81,37.9-11.32,3.23-24.48-85.81,53.16-15.17,2.64,9.25-41.85,11.94,8.39,29.41,36.01-10.27,2.64,9.25Z"/><path d="M262.1,235.75l-10.9,3.11-25.82-90.53,10.9-3.11,25.82,90.53Z"/><path d="M317.11,213.24c-2.82,6.2-8.34,10.47-16.55,12.81-6.8,1.94-12.54,1.44-17.22-1.49-4.68-2.93-8.15-8.27-10.39-16l-11.84-41.49,10.9-3.11,11.75,41.2c2.76,9.67,8.06,13.38,15.92,11.14,8.33-2.38,12.98-7.06,13.96-14.05l-13.23-46.38,10.9-3.11,18.19,63.77-10.37,2.96-2.03-6.24Z"/><path d="M338.28,128.36l4.4,15.44,11.91-3.4,2.4,8.43-11.91,3.4,11.3,39.6c.73,2.56,1.81,4.32,3.23,5.3,1.43,.98,3.41,1.1,5.97,.37,1.26-.36,2.92-1.09,4.98-2.19l2.51,8.79c-2.65,1.6-5.32,2.78-8.04,3.56-4.87,1.39-8.97,.96-12.28-1.28s-5.75-6.07-7.29-11.49l-11.28-39.55-11.61,3.31-2.4-8.43,11.61-3.31-4.4-15.44,10.9-3.11Z"/><path d="M412.31,194.18c-8.64,2.47-16.49,1.63-23.53-2.5s-11.92-10.95-14.63-20.46l-.57-2c-1.8-6.33-2.21-12.32-1.21-17.98s3.27-10.51,6.81-14.56,7.84-6.79,12.91-8.24c8.29-2.36,15.51-1.47,21.67,2.68,6.16,4.15,10.68,11.31,13.59,21.49l1.29,4.54-43.2,12.32c1.95,6.24,5.24,10.8,9.86,13.66,4.62,2.87,9.64,3.53,15.06,1.98,3.85-1.1,6.89-2.81,9.11-5.15,2.22-2.33,3.97-5.08,5.23-8.25l8.14,3.29c-3,9.74-9.85,16.13-20.53,19.18Zm-17.66-56.78c-4.4,1.26-7.64,3.91-9.71,7.96s-2.64,9.07-1.7,15.05l31.94-9.11-.24-.83c-1.89-5.45-4.61-9.32-8.15-11.6-3.54-2.28-7.59-2.77-12.15-1.47Z"/></g></svg>