<?xml version="1.0" encoding="UTF-8"?><svg id="a" xmlns="http://www.w3.org/2000/svg" viewBox="0 0 469.4 475.58"><path d="M2.21,2.19c-2.93,2.93-2.94,7.67-.02,10.61L46.29,57.03l-5.31,5.29c-2.01,2.01-2.72,4.97-1.82,7.67l10.56,31.84s.04,.09,.05,.14c.07,.19,.14,.37,.22,.56,.03,.07,.06,.14,.1,.22,.09,.18,.18,.36,.29,.53,.04,.07,.07,.13,.11,.2,.11,.18,.24,.35,.36,.52,.04,.05,.07,.11,.12,.16,.17,.22,.35,.42,.55,.62l88.96,89.23-1.77,1.76c-2.93,2.92-2.94,7.67-.02,10.61,2.92,2.93,7.67,2.94,10.61,.02l1.77-1.77,10.59,10.62-1.77,1.77c-2.93,2.93-2.94,7.67-.02,10.61s7.67,2.94,10.61,.02l1.77-1.77,10.59,10.62-1.77,1.77c-2.93,2.92-2.94,7.67-.02,10.61,2.92,2.93,7.67,2.94,10.61,.02l1.77-1.77,10.59,10.62-1.77,1.77c-2.93,2.92-2.94,7.67-.02,10.61,2.92,2.93,7.67,2.94,10.61,.02l1.77-1.77,10.59,10.62-1.77,1.77c-2.93,2.92-2.94,7.67-.02,10.61,2.92,2.93,7.67,2.94,10.61,.02l1.77-1.77,93.28,93.57,58.99,72.33-2.27,2.27c-2.93,2.92-2.94,7.67-.02,10.61,2.92,2.93,7.67,2.94,10.61,.02l7.09-7.07s63.73-63.53,63.73-63.53c1.47-1.46,2.2-3.38,2.21-5.3s-.73-3.84-2.19-5.31c-2.92-2.93-7.67-2.94-10.61-.02l-2.27,2.27-72.15-59.22-29.74-29.83,1.77-1.77c1.47-1.46,2.2-3.38,2.21-5.3s-.73-3.84-2.19-5.31c-2.92-2.93-7.67-2.94-10.61-.02l-1.77,1.77-10.59-10.62,1.77-1.77c1.47-1.46,2.2-3.38,2.21-5.3s-.73-3.84-2.19-5.31c-2.92-2.93-7.67-2.94-10.61-.02l-1.77,1.77-98.84-99.15,1.77-1.77c1.47-1.46,2.2-3.38,2.21-5.3s-.73-3.84-2.19-5.31c-2.92-2.93-7.67-2.94-10.61-.02l-1.77,1.77-10.59-10.62,1.77-1.76c1.47-1.46,2.2-3.38,2.21-5.3s-.73-3.84-2.19-5.31c-2.92-2.93-7.67-2.94-10.61-.02l-1.77,1.77-35.3-35.41,1.77-1.76c1.47-1.46,2.2-3.38,2.21-5.3s-.73-3.84-2.19-5.31c-2.92-2.93-7.67-2.94-10.61-.02l-1.77,1.77-13.06-13.1,1.77-1.77c1.47-1.46,2.2-3.38,2.21-5.3s-.73-3.84-2.19-5.31c-2.92-2.93-7.67-2.94-10.61-.02l-1.77,1.77-15.89-15.93c-.2-.2-.41-.38-.62-.55-.05-.04-.11-.08-.16-.12-.17-.13-.34-.25-.51-.36-.06-.04-.13-.08-.2-.12-.17-.1-.35-.2-.53-.29-.07-.03-.14-.07-.21-.1-.18-.08-.37-.16-.56-.22-.04-.02-.09-.04-.13-.05l-31.8-10.65c-2.69-.9-5.67-.21-7.68,1.8l-5.31,5.29L12.81,2.2c-2.92-2.93-7.67-2.94-10.61-.01ZM204.05,236.53l10.62-10.59,10.59,10.62-10.62,10.59-10.59-10.62Zm21.18,21.25l10.62-10.59,10.59,10.62-10.62,10.59-10.59-10.62Zm218.43,142.31l-44.92,44.78-53.99-66.2,32.88-32.78,66.03,54.2Zm-77.13-64.32l-31.87,31.77-88.25-88.52,10.62-10.59,72.37,72.59c2.92,2.93,7.67,2.94,10.61,.02,1.47-1.46,2.2-3.38,2.21-5.3s-.73-3.84-2.19-5.31l-8.83-8.85,10.62-10.59,24.71,24.79Zm-35.3-35.41l-10.62,10.59-10.59-10.62,10.62-10.59,10.59,10.62ZM184.73,153.41l21.19,21.25,104.14,104.46-10.62,10.59-58.25-58.43-21.18-21.25c-2.92-2.93-7.67-2.94-10.61-.02l-15.93,15.89-10.59-10.62,15.93-15.88c1.47-1.46,2.2-3.38,2.21-5.3s-.73-3.84-2.19-5.31c-2.92-2.93-7.67-2.94-10.61-.02l-15.93,15.89-10.59-10.62,15.93-15.89c1.47-1.46,2.2-3.38,2.21-5.3s-.73-3.84-2.19-5.31c-2.92-2.93-7.67-2.94-10.61-.02l-15.93,15.89L67.44,99.49l10.62-10.59,60.72,60.9c2.92,2.93,7.67,2.94,10.61,.02,1.47-1.46,2.2-3.38,2.21-5.3s-.73-3.84-2.19-5.31l-15.88-15.93,10.62-10.59,40.59,40.72Zm-51.18-51.34l-10.62,10.59-13.06-13.1,10.62-10.59,13.06,13.1Zm-23.65-23.72l-10.62,10.59-10.59-10.62,10.62-10.59,10.59,10.62Zm-24.46-17.97l-25.3,25.23-5.28-15.92,7.34-7.32,7.34-7.32,15.9,5.33Z"/><g><path d="M151.58,313.21c-5.84,6.09-11.97,10.42-18.37,13s-12.63,3.26-18.68,2.04c-6.05-1.21-11.58-4.22-16.59-9.03-4.9-4.7-8.08-10.06-9.56-16.1-1.48-6.04-1.13-12.29,1.05-18.75s6.05-12.65,11.62-18.57l4.3-4.48c5.73-5.98,11.84-10.26,18.31-12.85,6.47-2.59,12.78-3.28,18.91-2.07,6.13,1.21,11.65,4.16,16.55,8.86,4.98,4.78,8.22,10.19,9.71,16.24s1.07,12.34-1.26,18.88c-2.33,6.53-6.41,12.83-12.22,18.9l-3.77,3.93Zm-4.31-11.84c7.07-7.37,11.02-14.45,11.84-21.23,.82-6.78-1.43-12.73-6.75-17.83-5.18-4.97-11.15-6.91-17.9-5.82-6.76,1.09-13.53,5.09-20.34,12.01l-4.38,4.57c-6.85,7.14-10.74,14.2-11.65,21.16-.91,6.97,1.26,12.97,6.53,18.02,5.29,5.08,11.24,7.08,17.85,6.01,6.6-1.07,13.4-5.17,20.39-12.29l4.42-4.61Z"/><path d="M195.52,367.82c-6.77,7.06-13.83,11.17-21.19,12.35s-13.76-.86-19.23-6.11c-5.84-5.6-8.37-11.99-7.6-19.17l-5.5,4.97-7.26-6.96,62.9-65.58,7.9,7.58-23.47,24.47c6.98-.9,13.28,1.34,18.89,6.72,5.61,5.38,7.98,11.72,7.11,19.04-.87,7.31-4.83,14.66-11.91,22.03l-.66,.68Zm-7.04-8.47c5.16-5.38,8.11-10.53,8.84-15.46,.73-4.92-.85-9.26-4.75-13-5.21-5-11.27-6.17-18.19-3.51l-19.17,19.98c-2.22,7.16-.77,13.2,4.35,18.11,3.79,3.63,8.14,4.99,13.06,4.08,4.92-.91,10.2-4.31,15.86-10.21Z"/><path d="M204.28,374.41c4.34-4.53,9.13-7.74,14.38-9.65,5.25-1.91,10.4-2.32,15.46-1.24,5.06,1.08,9.62,3.57,13.69,7.48,6.29,6.03,9.29,13.09,9,21.17-.29,8.08-3.9,15.74-10.84,22.97l-.53,.56c-4.31,4.5-9.04,7.71-14.19,9.63-5.15,1.92-10.28,2.34-15.39,1.26-5.11-1.08-9.75-3.61-13.9-7.6-6.26-6.01-9.25-13.05-8.96-21.13s3.88-15.71,10.76-22.88l.53-.56Zm7.04,8.56c-4.91,5.12-7.67,10.38-8.27,15.76-.6,5.38,1.09,9.98,5.08,13.81s8.71,5.33,14.09,4.46c5.38-.88,10.79-4.15,16.22-9.82,4.86-5.07,7.6-10.33,8.21-15.78,.61-5.45-1.08-10.09-5.06-13.91-3.9-3.74-8.53-5.21-13.9-4.4-5.37,.81-10.82,4.1-16.36,9.88Z"/><path d="M252.03,467.02c-6.26-6.01-9.39-12.95-9.37-20.83,.02-7.88,3.33-15.27,9.94-22.15l1.39-1.45c4.4-4.58,9.2-7.84,14.4-9.76,5.2-1.92,10.36-2.39,15.45-1.41,5.1,.98,9.48,3.23,13.15,6.76,6.01,5.76,8.78,12.22,8.31,19.37-.46,7.15-4.23,14.41-11.3,21.79l-3.15,3.29-31.3-30.02c-4.26,4.66-6.45,9.62-6.59,14.87-.14,5.25,1.75,9.75,5.68,13.52,2.79,2.68,5.7,4.37,8.73,5.09,3.03,.72,6.17,.83,9.42,.35l1.22,8.39c-9.58,2.24-18.24-.36-25.98-7.79Zm38.74-42.36c-3.19-3.06-6.98-4.46-11.36-4.22-4.39,.24-8.85,2.21-13.37,5.91l23.14,22.2,.57-.6c3.62-4.23,5.52-8.38,5.7-12.44,.18-4.06-1.38-7.68-4.68-10.84Z"/></g></svg>