<?xml version="1.0" encoding="UTF-8"?><svg id="a" xmlns="http://www.w3.org/2000/svg" viewBox="0 0 483.13 523.44"><path d="M450.19,4.66c-6.22-6.22-16.29-6.22-22.51,0l-61.27,61.27c-30.06-11.67-65.45-17.88-102.56-17.88s-73.13,6.32-102.6,17.84L100.02,4.66c-6.22-6.22-16.29-6.22-22.51,0-6.22,6.22-6.22,16.29,0,22.51l53.75,53.75c-27.04,17.28-42.49,39.37-42.49,64.14,0,.05,0,.1,0,.16,.04,60.83,23.91,116.82,61.45,154.85l-42.35,56.46c-5.27,7.03-3.85,17.01,3.18,22.28,7.03,5.27,17.01,3.85,22.28-3.18l41.15-54.87c26.18,18.58,56.75,29.41,89.36,29.41s63.18-10.82,89.36-29.41l41.15,54.87c5.27,7.03,15.25,8.46,22.28,3.18,7.03-5.27,8.46-15.25,3.18-22.28l-42.35-56.46c37.57-38.07,61.45-94.12,61.45-155.02h0c0-25.02-15.73-47.26-42.44-64.18l53.7-53.7c6.21-6.22,6.21-16.29,0-22.51ZM130.68,207.71c32.08,19.63,79.78,31.04,133.17,31.04s101.1-11.41,133.18-31.04c-21.29,64.11-73.81,110.63-133.18,110.63-59.36,0-111.89-46.52-133.18-110.63Zm276.42-62.65c0,32.18-61.73,61.85-143.25,61.85s-143.13-29.62-143.25-61.76c0-.03,0-.06,0-.1h0c0-13.3,10.59-27.39,31.26-39.48l2.7-1.36,66.2,66.2c6.22,6.22,16.29,6.22,22.51,0s6.22-16.29,0-22.51l-57.09-57.09c22.64-6.99,49.51-10.94,77.67-10.94s54.65,3.89,77.62,10.99l-57.04,57.04c-6.22,6.22-6.22,16.29,0,22.51s16.29,6.22,22.51,0l66.35-66.35c21.98,11.99,33.81,26.93,33.81,40.99Z"/><g><path d="M75.37,408.65h-31.33v86.95h-12.78v-86.95H0v-10.51H75.37v10.51Z"/><path d="M87.95,403.96c0-2.01,.61-3.7,1.84-5.09,1.23-1.38,3.05-2.07,5.46-2.07s4.24,.69,5.49,2.07c1.25,1.38,1.87,3.08,1.87,5.09s-.63,3.68-1.87,5.02c-1.25,1.34-3.08,2.01-5.49,2.01s-4.23-.67-5.46-2.01c-1.23-1.34-1.84-3.01-1.84-5.02Zm13.39,91.63h-12.38v-72.42h12.38v72.42Z"/><path d="M132.8,423.17l.33,8.03c5.31-6.25,12.47-9.37,21.49-9.37,10.13,0,17.02,3.88,20.68,11.65,2.41-3.48,5.54-6.29,9.4-8.43,3.86-2.14,8.42-3.21,13.69-3.21,15.89,0,23.96,8.41,24.23,25.23v48.53h-12.38v-47.79c0-5.18-1.18-9.05-3.55-11.61-2.37-2.57-6.34-3.85-11.91-3.85-4.6,0-8.41,1.37-11.45,4.12s-4.8,6.44-5.29,11.08v48.06h-12.45v-47.46c0-10.53-5.15-15.8-15.46-15.8-8.12,0-13.68,3.46-16.67,10.37v52.88h-12.38v-72.42h11.71Z"/><path d="M302.48,460.19c0,11.02-2.52,19.9-7.56,26.64-5.04,6.74-11.87,10.11-20.48,10.11s-15.71-2.79-20.75-8.37v34.87h-12.38v-100.27h11.31l.6,8.03c5.04-6.25,12.05-9.37,21.02-9.37s15.58,3.28,20.65,9.84,7.6,15.68,7.6,27.38v1.14Zm-12.38-1.41c0-8.17-1.74-14.61-5.22-19.34-3.48-4.73-8.26-7.1-14.32-7.1-7.5,0-13.12,3.32-16.87,9.97v34.6c3.7,6.6,9.37,9.91,17,9.91,5.93,0,10.65-2.35,14.16-7.06,3.5-4.71,5.25-11.7,5.25-20.98Z"/><path d="M362.92,495.6c-.71-1.43-1.29-3.97-1.74-7.63-5.76,5.98-12.63,8.97-20.62,8.97-7.14,0-13-2.02-17.57-6.06-4.57-4.04-6.86-9.16-6.86-15.36,0-7.54,2.87-13.4,8.6-17.57s13.8-6.26,24.2-6.26h12.05v-5.69c0-4.33-1.29-7.78-3.88-10.34s-6.4-3.85-11.45-3.85c-4.42,0-8.12,1.12-11.11,3.35s-4.48,4.93-4.48,8.1h-12.45c0-3.61,1.28-7.11,3.85-10.48s6.05-6.04,10.44-8c4.4-1.96,9.23-2.95,14.49-2.95,8.34,0,14.88,2.09,19.61,6.26,4.73,4.17,7.18,9.92,7.36,17.24v33.33c0,6.65,.85,11.94,2.54,15.86v1.07h-12.99Zm-20.55-9.44c3.88,0,7.56-1,11.04-3.01s6-4.62,7.56-7.83v-14.86h-9.71c-15.17,0-22.76,4.44-22.76,13.32,0,3.88,1.29,6.92,3.88,9.1s5.91,3.28,9.97,3.28Z"/><path d="M404.48,423.17l.4,9.1c5.53-6.96,12.76-10.44,21.69-10.44,15.31,0,23.03,8.63,23.16,25.9v47.86h-12.38v-47.92c-.04-5.22-1.24-9.08-3.58-11.58s-5.99-3.75-10.94-3.75c-4.02,0-7.54,1.07-10.58,3.21s-5.4,4.95-7.1,8.43v51.61h-12.38v-72.42h11.71Z"/><path d="M468.47,403.96c0-2.01,.61-3.7,1.84-5.09s3.05-2.07,5.46-2.07,4.24,.69,5.49,2.07c1.25,1.38,1.87,3.08,1.87,5.09s-.62,3.68-1.87,5.02c-1.25,1.34-3.08,2.01-5.49,2.01s-4.23-.67-5.46-2.01-1.84-3.01-1.84-5.02Zm13.39,91.63h-12.38v-72.42h12.38v72.42Z"/></g></svg>