<?xml version="1.0" encoding="UTF-8"?><svg id="a" xmlns="http://www.w3.org/2000/svg" viewBox="0 0 515.07 589.5"><path d="M467.8,114.78L355.22,2.2c-2.41-2.41-6.15-2.9-9.1-1.16-2.94,1.73-4.35,5.23-3.42,8.51,11.69,41.21,.12,85.65-30.2,115.97l-62.76,62.76-14.13,14.13-1.82-1.82c-2.93-2.93-7.68-2.93-10.61,0l-5.38,5.38-10.56-10.56,3.97-3.97c2.93-2.93,2.93-7.68,0-10.61-2.93-2.93-7.68-2.93-10.61,0l-18.54,18.54c-2.93,2.93-2.93,7.68,0,10.61,1.46,1.46,3.38,2.2,5.3,2.2s3.84-.73,5.3-2.2l3.97-3.97,10.56,10.56-5.38,5.38c-2.93,2.93-2.93,7.68,0,10.61l1.82,1.82-7.2,7.2-1.82-1.82c-2.93-2.93-7.68-2.93-10.61,0l-5.38,5.38-10.56-10.56,3.97-3.97c2.93-2.93,2.93-7.68,0-10.61-2.93-2.93-7.68-2.93-10.61,0l-18.54,18.54c-2.93,2.93-2.93,7.68,0,10.61,1.46,1.46,3.38,2.2,5.3,2.2s3.84-.73,5.3-2.2l3.97-3.97,10.56,10.56-5.38,5.38c-2.93,2.93-2.93,7.68,0,10.61l1.82,1.82-7.2,7.2-1.82-1.82c-1.41-1.41-3.31-2.2-5.3-2.2s-3.9,.79-5.3,2.2l-5.38,5.38-10.56-10.56,3.97-3.97c2.93-2.93,2.93-7.68,0-10.61-2.93-2.93-7.68-2.93-10.61,0l-18.54,18.54c-2.93,2.93-2.93,7.68,0,10.61,1.46,1.46,3.38,2.2,5.3,2.2s3.84-.73,5.3-2.2l3.97-3.97,10.56,10.56-5.38,5.38c-2.93,2.93-2.93,7.68,0,10.61l1.82,1.82L14.62,423.4l-1.82-1.82c-2.93-2.93-7.68-2.93-10.61,0-2.93,2.93-2.93,7.68,0,10.61l35.62,35.62c1.46,1.46,3.38,2.2,5.3,2.2s3.84-.73,5.3-2.2c2.93-2.93,2.93-7.68,0-10.61l-1.82-1.82,49.61-49.61c3.54,8.12,8.59,15.56,14.94,21.9,13.46,13.46,31.36,20.88,50.4,20.88s36.94-7.42,50.4-20.88l14.12-14.12,8.94,8.95c1.41,1.41,3.31,2.2,5.3,2.2s3.9-.79,5.3-2.2l21.37-21.37c1.41-1.41,2.2-3.31,2.2-5.3s-.79-3.9-2.2-5.3l-8.94-8.94,7.2-7.2,8.94,8.94c1.46,1.46,3.39,2.2,5.3,2.2s3.84-.73,5.3-2.2l21.37-21.37c2.93-2.93,2.93-7.68,0-10.61l-8.94-8.94,7.2-7.2,8.94,8.94c1.46,1.46,3.39,2.2,5.3,2.2s3.84-.73,5.3-2.2l21.37-21.37c2.93-2.93,2.93-7.68,0-10.61l-8.95-8.94,14.12-14.12c27.79-27.79,27.79-73.01,0-100.8-6.41-6.41-13.83-11.43-21.9-14.95l15.83-15.84c30.32-30.32,74.76-41.89,115.97-30.2,3.29,.94,6.79-.47,8.52-3.42,1.73-2.95,1.25-6.69-1.16-9.1Zm-133.92,32.11l-21.56,21.56c-3.98-.68-8.05-1.05-12.17-1.05-2.99,0-5.95,.2-8.88,.57l31.84-31.84c28.24-28.24,42.04-67.34,38.54-106.28l78.51,78.51c-38.94-3.5-78.05,10.3-106.28,38.54ZM121.76,417.06c-6.45-6.45-11.21-14.32-13.91-22.93l12.86-12.86c.89,9.14,4.82,18.05,11.81,25.04,8,8,18.51,12,29.03,12s21.03-4,29.03-12.01l14.12-14.12,10.77,10.77-14.12,14.12c-10.63,10.63-24.76,16.48-39.79,16.48s-29.17-5.85-39.8-16.48Zm-96.53,16.94l110.65-110.65,10.76,10.77-14.11,14.11s-96.54,96.54-96.54,96.54l-10.76-10.77Zm117.9-75.16l14.12-14.12,36.84,36.84-14.12,14.12c-10.16,10.16-26.69,10.16-36.84,0-10.16-10.16-10.16-26.69,0-36.85Zm88.25,38.8s-92.02-92.02-92.02-92.02l10.77-10.77,100.96,100.96-10.77,10.77-8.94-8.94Zm-2.97-124.08l7.2-7.2,36.84,36.84-7.2,7.2-36.85-36.84Zm-3.4-17.81l-7.2,7.2-10.76-10.76,7.2-7.2,10.76,10.76Zm-35.78,56.99l7.2-7.2,36.84,36.84-7.2,7.2-36.84-36.84Zm-3.4-17.81l-7.2,7.2-10.76-10.77,7.2-7.2,10.76,10.77Zm50.86,65.26l7.2-7.2,10.76,10.77-7.2,7.2-10.76-10.77Zm-58.14-93.76l10.77-10.77,1.82,1.82s99.15,99.14,99.15,99.14l-10.77,10.77-100.96-100.96Zm97.32,54.58l7.2-7.2,10.77,10.77-7.2,7.2-10.77-10.77Zm-58.14-93.76l10.77-10.77,100.96,100.96-10.77,10.77-100.96-100.96Zm49.87,7.12l14.12-14.12c10.16-10.16,26.69-10.16,36.85,0,10.16,10.16,10.16,26.69,0,36.84l-14.12,14.12-36.84-36.84Zm47.45,47.45l14.12-14.12c16.01-16.01,16.01-42.05,0-58.06-7.74-7.74-18.05-12.01-29.03-12.01s-21.29,4.26-29.03,12.01l-14.12,14.12-10.76-10.76,14.12-14.12c10.63-10.63,24.76-16.48,39.79-16.48s29.17,5.85,39.79,16.48c21.94,21.94,21.94,57.65,0,79.59l-14.12,14.12-10.77-10.76Z"/><g><path d="M184.05,505.53l-20.06,20.08,55.73,55.69-8.19,8.2-55.73-55.69-20.02,20.04-6.74-6.73,48.27-48.31,6.74,6.73Z"/><path d="M227.71,494.71c-1.4,1-2.8,2.2-4.2,3.6-5.2,5.21-6.51,10.95-3.94,17.24l32.95,32.93-7.93,7.94-46.42-46.39,7.72-7.72,5.49,5.23c-1.55-6.75,.07-12.51,4.84-17.29,1.54-1.54,2.92-2.52,4.12-2.92l7.38,7.37Z"/><path d="M298.34,493.43c.55,6.72-2.17,13.07-8.14,19.05-4.94,4.95-10.15,7.28-15.61,7s-11.02-3.23-16.69-8.83l-30.21-30.18,7.93-7.94,29.99,29.97c7.04,7.03,13.41,7.69,19.13,1.97,6.06-6.06,7.83-12.36,5.31-18.87l-33.77-33.74,7.93-7.94,46.42,46.39-7.55,7.55-4.76-4.42Z"/><path d="M283.73,424.39l5.36,4.93c-.6-7.41,1.98-14,7.76-19.77,6.49-6.49,13.39-8.43,20.71-5.8-.69-3.77-.48-7.58,.62-11.43,1.1-3.85,3.34-7.46,6.71-10.83,10.17-10.18,20.74-9.97,31.7,.63l31.11,31.08-7.93,7.94-30.63-30.61c-3.32-3.32-6.56-5.04-9.72-5.16-3.16-.13-6.53,1.6-10.1,5.17-2.94,2.95-4.51,6.27-4.69,9.97-.18,3.7,1.05,7.2,3.71,10.48l30.81,30.78-7.97,7.98-30.42-30.4c-6.75-6.75-13.43-6.81-20.03-.21-5.2,5.21-6.54,10.98-4.02,17.33l33.9,33.87-7.93,7.94-46.42-46.39,7.5-7.51Z"/><path d="M416.14,339.33c7.07,7.06,11.14,14.36,12.23,21.91,1.09,7.55-1.12,14.08-6.64,19.6-5.63,5.63-11.85,8.28-18.65,7.94l22.35,22.34-7.93,7.94-64.27-64.22,7.25-7.25,5.53,4.76c-.77-7.23,1.71-13.73,7.46-19.47,5.57-5.58,12.08-7.89,19.53-6.93,7.45,.95,14.92,5.18,22.41,12.66l.73,.73Zm-8.83,7.04c-5.23-5.23-10.48-8.24-15.74-9.04-5.26-.8-9.84,.75-13.72,4.64-4.8,4.81-6.27,10.54-4.41,17.2l22.18,22.16c6.61,1.86,12.35,.34,17.24-4.55,3.8-3.8,5.31-8.34,4.54-13.6-.77-5.26-4.14-10.86-10.09-16.81Z"/><path d="M469.02,333.52c-6.29,6.29-13.47,9.35-21.55,9.17-8.08-.18-15.58-3.73-22.5-10.65l-1.46-1.46c-4.61-4.6-7.84-9.59-9.7-14.96-1.86-5.37-2.23-10.66-1.12-15.87s3.51-9.65,7.2-13.34c6.03-6.04,12.71-8.74,20.03-8.11,7.32,.63,14.68,4.64,22.09,12.04l3.3,3.3-31.43,31.45c4.69,4.46,9.72,6.82,15.1,7.07,5.38,.26,10.04-1.59,13.98-5.54,2.8-2.8,4.6-5.75,5.4-8.84s.98-6.31,.55-9.65l8.62-1.08c2.09,9.86-.75,18.69-8.52,26.47Zm-42.6-40.6c-3.2,3.2-4.72,7.06-4.56,11.56s2.08,9.11,5.77,13.83l23.24-23.25-.6-.6c-4.26-3.8-8.47-5.84-12.63-6.11-4.16-.27-7.9,1.25-11.21,4.57Z"/><path d="M448.52,236.98l11.24,11.23,8.66-8.67,6.14,6.13-8.66,8.67,28.83,28.8c1.86,1.86,3.64,2.87,5.35,3.03s3.48-.69,5.34-2.55c.91-.92,2-2.35,3.26-4.29l6.4,6.39c-1.52,2.66-3.26,4.97-5.24,6.94-3.54,3.55-7.29,5.15-11.24,4.81-3.95-.34-7.89-2.48-11.84-6.43l-28.79-28.77-8.45,8.45-6.14-6.13,8.45-8.45-11.24-11.23,7.93-7.94Z"/></g></svg>