<?xml version="1.0" encoding="UTF-8"?><svg id="a" xmlns="http://www.w3.org/2000/svg" viewBox="0 0 290.31 436.72"><g><path d="M34.72,.39c-2.04-.65-4.18-.48-6.13,.53L4.76,13.29C.87,15.3-.67,20.15,1.34,24.04l2.39,4.63-.28,.14c-3.15,1.63-4.36,5.42-2.73,8.57,1.63,3.15,5.42,4.36,8.57,2.73l.28-.14,2.39,4.63c1.53,2.96,4.61,4.49,7.68,4.3l2.57,5.31-1.02,.53c-3.15,1.63-4.36,5.42-2.73,8.57,1.63,3.15,5.42,4.36,8.57,2.73l.65-.34,52.09,109.85c-10.7,9.05-18.88,20.15-23.41,31.71-5.5,14.12-5.15,28.31,.89,39.99,4.89,9.45,10.11,16.61,16.4,22.4,1.87,2.14,4.89,6.51,5.28,13.06,.29,3.96,2.85,7.33,6.65,8.54,3.7,1.26,7.77,.15,10.41-2.8l.25-.31c.21-.17,.35-.35,.48-.54,.5-.61,.85-.73,1.02-.76,1.11-.34,3.63,.77,6.61,4.04,3.86,4.17,7.28,10.68,9.41,17.86,2.13,7.18,2.83,14.45,1.97,20.06-.67,4.28-2.17,6.58-3.31,7-.26,.07-1.56,.28-5.71,.66-3.61,.4-6.7,2.82-7.8,6.26l-.04,.14c-1.05,3.54,.08,7.3,2.88,9.66,2.33,1.9,4.16,4.19,5.5,6.78,1.48,2.87,2.3,6.15,2.34,9.41,.11,14.97,2.85,28.23,8.14,38.35,8.81,17.05,25.93,27.45,48.33,29.32,18.47,1.55,39.24-2.67,59.22-11.95,3.8-1.96,7.5-3.88,11.3-5.84,19.12-10.94,34.57-25.45,43.99-41.41,2.99-5.01,5.23-10.1,6.84-15.16,4.59-14.41,3.7-28.62-2.82-41.22-5.22-10.1-14.43-20.07-26.58-28.82-5.04-3.62-8.17-9.34-8.68-15.77-.06-1.26-.45-2.47-.96-3.56-1.39-2.69-4-4.45-6.97-4.85-2.99-.33-5.98,.8-7.96,3.12-2.71,3.16-3.61,4.04-3.82,4.2-2.52,1.83-13.26-2.36-22.84-14.55-4.63-5.89-7.96-12.44-9.13-18-.94-4.33-.4-7.02,.53-7.73,.09-.05,.42-.33,1.21-.39,.23,0,.49-.08,.72-.08l.33-.05c3.91-.38,7.17-3.06,8.37-6.85,1.14-3.82-.06-7.84-3.2-10.38-5.09-4.18-6.93-9.1-7.53-11.84-1.09-8.48-3.91-16.88-8.8-26.33-6.04-11.67-17.49-20.2-32.11-23.85-12.03-3.06-25.83-2.73-39.41,.76L61.81,56.3l1.02-.53c1.58-.81,2.63-2.18,3.12-3.73s.42-3.27-.39-4.85c-1.63-3.15-5.42-4.36-8.57-2.73l-1.39,.72-6.45-11.57c.64-.8,1.17-1.72,1.46-2.63,.63-1.97,.46-4.11-.53-6.13l-2.39-4.63,.28-.14c1.58-.81,2.63-2.18,3.12-3.73s.42-3.27-.39-4.85c-1.63-3.15-5.42-4.36-8.57-2.73l-.28,.14-2.39-4.63c-1.03-1.88-2.68-3.25-4.72-3.9ZM225.26,410.51c-1.58,.81-3.13,1.56-4.66,2.23l-13.99-27.05,9.17-4.74,13.99,27.05c-1.5,.84-3.01,1.67-4.51,2.51Zm-47.31-225.51c4.26,8.25,6.64,15.35,7.58,22.38l.08,.49c.75,3.49,2.67,9.6,7.81,15.34-1.09,.5-2.13,1.1-3.08,1.88-5.26,4.13-7.1,11.36-5.11,20.43,1.64,7.49,5.69,15.67,11.53,23.1,13.43,17.13,30.95,24.33,40.67,16.66,.21-.17,.42-.33,.65-.57,2.15,7.11,6.5,13.37,12.55,17.7,10.39,7.49,18.41,16.08,22.67,24.32,8.62,16.68,2.73,33.22-3.67,44.11-6.57,11.14-16.64,21.64-29.1,30.36l-16.09-31.13-11.7-41.03c-.51-1.79-1.82-3.29-3.58-4.08s-3.74-.65-5.41,.21l-35.67,18.44c-1.67,.86-2.88,2.49-3.3,4.29-.37,1.89,.1,3.82,1.26,5.28l26.71,33.27,16.09,31.13c-14.34,5.18-28.73,7.34-41.62,6.25-12.66-1.09-29.49-5.83-38.11-22.51-4.26-8.25-6.63-19.76-6.74-32.56-.05-5.2-1.31-10.48-3.77-15.13-.96-1.85-2.15-3.7-3.41-5.34,.33-.05,.58-.12,.84-.2,6.41-1.91,10.76-8.03,12.27-17.15,1.23-7.5,.43-16.66-2.33-25.74-2.69-9.06-7-17.17-12.18-22.76-6.25-6.87-13.21-9.55-19.63-7.64-1.19,.32-2.27,.82-3.32,1.42-1.73-7.44-5.51-12.59-7.93-15.22-.12-.12-.24-.23-.4-.44-5.22-4.76-9.62-10.88-13.88-19.13-8.14-15.75-1.04-37.56,16.88-53.99l39.61,83.43c.74,1.55,2.07,2.75,3.68,3.26s3.43,.4,4.92-.37l32.89-17c1.48-.77,2.61-2.11,3.12-3.73l.02-.07c.51-1.62,.3-3.39-.53-4.89l-45.1-80.54c23.77-5.13,45.74,1.72,53.81,17.44Zm21.85,190.01l-19-23.7,21.87-11.3,8.35,29.21-11.21,5.8Zm-44.78-126.49l-21.22,10.97L31.44,44.23l6.95-3.59,116.62,207.88ZM36.61,26.53l-15.57,8.05-6.32-12.23,15.57-8.05,6.32,12.23Z"/><path d="M190.49,270.8c-4.62-5.42-12.75-6.15-18.17-1.53-2.65,2.25-2.99,6.24-.77,8.97,2.25,2.65,6.24,2.99,8.97,.77,.09-.05,.26-.07,.3,.02l22.99,27.21c2.25,2.65,5.31,4.24,8.78,4.5,3.46,.33,6.75-.79,9.41-3.04,.95-.78,1.58-1.82,1.94-2.94,.65-2.04,.29-4.32-1.18-6.03-2.25-2.65-6.24-2.99-8.97-.77,0,0-.09,.05-.16,.03l-.14-.04-23.01-27.14Z"/><path d="M140.63,285.66c-3.37,.86-6.14,3-7.92,5.91-1.73,3.01-2.2,6.42-1.41,9.77l8.91,34.49s.05,.09-.04,.14c-.02,.07-.12,.12-.12,.12-3.37,.86-5.4,4.32-4.56,7.76,.86,3.37,4.32,5.4,7.76,4.56,3.37-.86,6.14-3,7.92-5.91,.5-.85,.86-1.74,1.15-2.65,.72-2.25,.8-4.7,.18-7.14l-8.91-34.49s-.05-.09,.04-.14c.02-.07,.12-.12,.12-.12,3.37-.86,5.4-4.32,4.56-7.76-.86-3.37-4.3-5.47-7.69-4.54Z"/></g><g><path d="M119.88,84.8l54.57-31.64,7.89,6.81-67.5,37.2-6.39-5.51,26.96-72.18,7.85,6.78-23.39,58.55Z"/><path d="M185.79,68.65c.97-1.13,2.14-1.78,3.5-1.96s2.71,.31,4.07,1.48,2.04,2.44,2.08,3.82-.44,2.64-1.41,3.76-2.13,1.76-3.48,1.91-2.7-.36-4.05-1.53-2.05-2.42-2.09-3.77,.43-2.58,1.4-3.71Zm-36.87,57.92l-6.95-6,35.08-40.65,6.95,6-35.08,40.65Z"/><path d="M176.07,113.88c3.44-3.98,7.31-6.89,11.62-8.72,4.31-1.83,8.61-2.4,12.89-1.72,4.28,.68,8.22,2.57,11.8,5.66,5.54,4.78,8.36,10.56,8.47,17.34s-2.58,13.36-8.07,19.72l-.42,.49c-3.42,3.96-7.24,6.85-11.47,8.69s-8.51,2.41-12.84,1.74c-4.33-.68-8.33-2.6-11.98-5.75-5.51-4.76-8.32-10.52-8.43-17.31-.11-6.78,2.56-13.33,8-19.64l.42-.49Zm6.28,6.86c-3.89,4.51-5.97,9.03-6.23,13.57-.26,4.54,1.36,8.32,4.86,11.34s7.53,4.08,12,3.11c4.47-.97,8.85-3.95,13.15-8.94,3.85-4.46,5.91-8.99,6.18-13.58s-1.35-8.4-4.85-11.43-7.38-3.98-11.84-3.07c-4.46,.91-8.88,3.91-13.27,9Z"/><path d="M211.48,180.56l-6.95-6,49.8-57.71,6.95,6-49.8,57.71Z"/><path d="M247.7,211.81c.29-1.15,1.2-2.86,2.72-5.13-6.13,.57-11.43-1.08-15.92-4.95-4.01-3.46-6.32-7.43-6.93-11.91s.59-8.46,3.59-11.95c3.65-4.23,8.1-6.13,13.34-5.7,5.24,.44,10.78,3.17,16.61,8.21l6.76,5.84,2.76-3.19c2.1-2.43,3.04-4.99,2.83-7.69s-1.73-5.26-4.56-7.7c-2.48-2.14-5.1-3.31-7.86-3.5-2.76-.2-4.91,.6-6.44,2.37l-6.99-6.03c1.75-2.03,4.16-3.37,7.23-4.02s6.32-.46,9.74,.57,6.61,2.82,9.56,5.37c4.68,4.04,7.34,8.38,7.98,13.01s-.77,9.05-4.22,13.24l-16.15,18.71c-3.22,3.73-5.31,7.11-6.26,10.14l-.52,.6-7.29-6.29Zm-6.96-15.25c2.18,1.88,4.73,3.1,7.66,3.66s5.61,.31,8.04-.73l7.2-8.34-5.45-4.7c-8.52-7.35-14.93-8.53-19.23-3.55-1.88,2.18-2.62,4.51-2.23,6.99,.39,2.48,1.73,4.71,4.01,6.67Z"/></g></svg>