<?xml version="1.0" encoding="UTF-8"?><svg id="a" xmlns="http://www.w3.org/2000/svg" viewBox="0 0 286.65 279.67"><g><path d="M286.58,15.16c-.23-1.43-.99-2.68-2.2-3.54l-14.8-10.61c-2.41-1.73-5.82-1.18-7.55,1.23l-2.07,2.87-.17-.12c-1.95-1.4-4.62-.97-6.02,.98-1.4,1.95-.97,4.62,.98,6.02l.17,.12-2.07,2.87c-1.32,1.84-1.3,4.16-.24,5.97l-2.42,3.18-.63-.45c-1.95-1.4-4.62-.97-6.02,.98-1.4,1.95-.97,4.62,.98,6.02l.4,.29-50.42,65.24c-8.76-3.69-17.98-5.22-26.36-4.41-10.22,1.01-18.7,5.59-23.9,12.82-4.21,5.86-6.94,11.22-8.51,16.79-.72,1.79-2.43,4.96-6.27,7.21-2.31,1.39-3.56,3.98-3.12,6.64,.38,2.62,2.29,4.74,4.89,5.43l.26,.06c.16,.07,.32,.1,.48,.12,.53,.12,.71,.29,.77,.38,.55,.57,.65,2.43-.41,5.24-1.34,3.61-4.22,7.68-7.91,11.17-3.69,3.49-7.86,6.15-11.52,7.35-2.79,.91-4.65,.71-5.25,.15-.12-.13-.65-.86-2.15-3.25-1.35-2.06-3.76-3.19-6.18-2.79l-.1,.02c-2.46,.45-4.39,2.29-4.96,4.71-.43,2-1.25,3.8-2.41,5.41-1.28,1.78-3.01,3.28-4.97,4.31-9.02,4.66-16.19,10.4-20.69,16.7-7.6,10.56-8.63,24.11-2.88,38.22,4.74,11.64,13.67,22.9,25.41,32.14l7,5.04c12.49,8.2,26,13.09,38.55,13.88,3.95,.27,7.71,.06,11.27-.52,10.12-1.65,18.44-6.56,24.06-14.36,4.5-6.26,7.7-14.89,9.26-24.92,.64-4.16,3.13-7.81,6.87-10.09,.74-.43,1.35-1.03,1.86-1.67,1.2-1.67,1.46-3.79,.79-5.7-.72-1.91-2.32-3.37-4.33-3.85-2.74-.67-3.55-.94-3.71-1.02-1.88-.96-2.64-8.74,1.78-18.28,2.14-4.61,5.08-8.63,8.08-11.05,2.33-1.9,4.12-2.4,4.83-2.06,.06,.04,.33,.15,.61,.61,.07,.14,.2,.27,.27,.41l.13,.18c1.43,2.25,4.05,3.39,6.72,2.96,2.66-.48,4.72-2.44,5.3-5.12,.96-4.36,3.37-6.99,4.85-8.19,4.79-3.26,9-7.55,13.22-13.41,5.2-7.23,6.84-16.77,4.55-26.74-1.85-8.21-6.28-16.46-12.57-23.59l43-64.43,.63,.45c.98,.7,2.13,.92,3.21,.74s2.11-.75,2.81-1.73c1.4-1.95,.97-4.62-.98-6.02l-.86-.62,5.02-7.46c.68,.14,1.4,.18,2.04,.07,1.38-.23,2.63-.99,3.54-2.2l2.07-2.87,.17,.12c.98,.7,2.13,.92,3.21,.74s2.11-.75,2.81-1.73c1.4-1.95,.97-4.62-.98-6.02l-.17-.12,2.07-2.87c.82-1.2,1.14-2.62,.91-4.05ZM97.14,256.32c-.98-.7-1.9-1.41-2.78-2.13l12.06-16.76,5.68,4.09-12.06,16.76c-.97-.65-1.94-1.31-2.9-1.96Zm121.81-97.87c-3.68,5.11-7.24,8.73-11.2,11.46l-.27,.2c-1.88,1.52-4.98,4.56-6.87,9.43-.64-.5-1.32-.95-2.08-1.28-4.11-1.91-9.05-.8-13.92,3.18-4.02,3.29-7.72,8.25-10.42,14.07-6.23,13.38-5.2,26.19,2.42,29.71,.16,.07,.33,.15,.54,.22-3.64,3.48-6.09,8.04-6.84,13.03-1.34,8.58-4.07,16.07-7.74,21.18-7.43,10.33-19.25,11.86-27.8,11.33-8.75-.55-18.19-3.42-27.29-8.26l13.88-19.29,21.21-19.68c.92-.86,1.43-2.11,1.37-3.42s-.76-2.46-1.79-3.2l-22.1-15.9c-1.03-.74-2.39-.98-3.61-.68-1.26,.36-2.28,1.23-2.8,2.38l-11.91,26.37-13.88,19.29c-7.54-7.08-13.26-15.12-16.56-23.24-3.23-7.99-5.53-19.62,1.9-29.95,3.68-5.11,9.91-10.08,17.62-14.07,3.13-1.63,5.93-4.01,7.99-6.93,.83-1.15,1.58-2.44,2.18-3.7,.13,.18,.25,.31,.38,.45,3.12,3.29,8.16,4.04,14.13,2.15,4.91-1.56,10.2-4.86,14.85-9.31,4.65-4.41,8.23-9.5,10.02-14.35,2.23-5.89,1.71-10.92-1.41-14.21-.56-.62-1.2-1.12-1.88-1.57,3.97-3.33,5.92-7.2,6.77-9.47,.03-.11,.07-.21,.14-.38,1.27-4.62,3.62-9.16,7.3-14.27,7.02-9.76,22.39-12.17,37.83-6.38l-38.28,49.57c-.71,.93-1.03,2.09-.84,3.23s.81,2.2,1.73,2.86l20.38,14.66c.92,.66,2.08,.93,3.21,.74h.05c1.14-.19,2.14-.86,2.79-1.83l34.84-52c10.4,12.8,13.01,28.18,5.98,37.89Zm-108.16,71.57l8.49-18.77,13.55,9.75-15.09,14.02-6.95-5Zm62.72-65.93l-13.15-9.46L259.06,26.64l4.31,3.1-89.86,134.36ZM271.35,24.33l-9.65-6.94,5.45-7.58,9.65,6.94-5.45,7.58Z"/><path d="M170.93,192.39c1.86-4.46-.2-9.6-4.66-11.45-2.18-.91-4.7,.11-5.66,2.29-.91,2.18,.11,4.7,2.29,5.66,.06,.04,.12,.13,.08,.19l-9.39,22.26c-.91,2.18-.94,4.51-.02,6.69,.86,2.19,2.55,3.84,4.73,4.75,.76,.33,1.59,.4,2.38,.27,1.43-.23,2.7-1.15,3.28-2.56,.91-2.18-.11-4.7-2.29-5.66,0,0-.06-.04-.07-.09l-.02-.1,9.34-22.25Z"/><path d="M146.64,166.81c-1.56-1.77-3.7-2.79-6.01-2.97-2.35-.12-4.56,.64-6.34,2.15l-18.12,15.98s-.04,.06-.1,.02c-.05,0-.11-.03-.11-.03-1.56-1.77-4.27-1.94-6.09-.37-1.77,1.56-1.94,4.27-.37,6.09,1.56,1.77,3.7,2.79,6.01,2.97,.67,.04,1.32-.01,1.96-.12,1.58-.26,3.09-.96,4.37-2.08l18.12-15.98s.04-.06,.1-.02c.05,0,.11,.03,.11,.03,1.56,1.77,4.27,1.94,6.09,.37,1.77-1.56,1.99-4.28,.38-6.04Z"/></g><g><path d="M55.82,165.58l-25.87-47.74,6.05-6.62,30.33,59-4.9,5.36L0,150.59l6.03-6.59,49.8,21.57Z"/><path d="M43.57,108.46c-.95-.86-1.48-1.88-1.6-3.06s.33-2.33,1.37-3.46,2.15-1.7,3.34-1.69,2.26,.44,3.2,1.31,1.46,1.88,1.56,3.05-.38,2.32-1.42,3.45-2.14,1.7-3.3,1.7-2.21-.43-3.16-1.3Zm48.93,33.16l-5.33,5.83-34.11-31.19,5.33-5.83,34.11,31.19Z"/><path d="M82.24,117.95c-3.34-3.06-5.75-6.46-7.21-10.22s-1.86-7.47-1.16-11.14,2.41-7.01,5.16-10.01c4.25-4.64,9.29-6.93,15.13-6.86,5.84,.07,11.43,2.55,16.77,7.43l.41,.37c3.32,3.04,5.72,6.4,7.19,10.08s1.87,7.38,1.18,11.09c-.69,3.71-2.44,7.1-5.25,10.17-4.23,4.62-9.26,6.9-15.1,6.83-5.84-.07-11.41-2.53-16.7-7.37l-.41-.37Zm6.06-5.23c3.78,3.46,7.62,5.36,11.52,5.7s7.19-.96,9.88-3.9,3.7-6.38,2.97-10.25-3.18-7.71-7.36-11.54c-3.74-3.42-7.58-5.31-11.53-5.65s-7.27,.95-9.96,3.89-3.61,6.25-2.94,10.11,3.15,7.74,7.41,11.64Z"/><path d="M140.5,89.13l-5.33,5.83-48.42-44.28,5.33-5.83,48.42,44.28Z"/><path d="M105.9,40.3c-.95-.86-1.48-1.88-1.6-3.06s.33-2.33,1.37-3.46,2.15-1.7,3.34-1.69,2.26,.44,3.2,1.31,1.46,1.88,1.56,3.05-.38,2.32-1.42,3.45-2.14,1.7-3.3,1.7-2.21-.43-3.16-1.3Zm48.93,33.16l-5.33,5.83-34.11-31.19,5.33-5.83,34.11,31.19Z"/><path d="M134.29,27.42l4.46,3.73c-.9-5.6,.58-10.51,4.42-14.71,6.59-7.21,13.98-7.13,22.18,.25l22.54,20.61-5.33,5.83-22.57-20.64c-2.48-2.23-4.81-3.33-7-3.3s-4.35,1.21-6.48,3.54c-1.73,1.89-2.74,4.01-3.04,6.36-.3,2.35,0,4.68,.92,6.97l24.31,22.23-5.33,5.83-34.11-31.19,5.05-5.52Z"/></g></svg>